# xmcd CD database file
#
# Track frame offsets:
#	150
#	13202
#	31653
#	45236
#	60644
#	79217
#	97388
#	108891
#	126466
#	142482
#	176234
#
# Disc length: 2563 seconds
#
# Revision: 0
# Processed by: cddbd v1.5.1PL0 Copyright (c) Steve Scherf et al.
# Submitted via: CDex 1.51
#
DISCID=9e0a010b
DTITLE=Cyntia M. - Bistro Blue
DYEAR=2004
DGENRE=Jazz
TTITLE0=La Vie En Rose
TTITLE1=La Mer
TTITLE2=Padam Padam
TTITLE3=Sous Le Ciel De Paris
TTITLE4=After You've Gone
TTITLE5=Les Feuilles Mortes
TTITLE6=Vous Qui Passez Sans Me Voir
TTITLE7=Nuit Et Jour
TTITLE8=Que Reste-T-Il De Nos Amours
TTITLE9=J'Attendrai-Je Suis Seule Ce Soir
TTITLE10=C'est Si Bon
EXTD=YEAR: 2004
EXTT0=
EXTT1=
EXTT2=
EXTT3=
EXTT4=
EXTT5=
EXTT6=
EXTT7=
EXTT8=
EXTT9=
EXTT10=
PLAYORDER=
